<?xml version="1.0" standalone="no"?>
<!DOCTYPE svg PUBLIC "-//W3C//DTD SVG 20010904//EN"
 "http://www.w3.org/TR/2001/REC-SVG-20010904/DTD/svg10.dtd">
<svg version="1.0" xmlns="http://www.w3.org/2000/svg"
 width="64.000000pt" height="64.000000pt" viewBox="0 0 64.000000 64.000000"
 preserveAspectRatio="xMidYMid meet">

<g transform="translate(0.000000,64.000000) scale(0.100000,-0.100000)"
fill="#000000" stroke="none">
<path d="M25 607 c-3 -7 -4 -114 -3 -237 l3 -225 106 -3 107 -3 -12 -47 c-9
-36 -17 -48 -34 -50 -12 -2 -22 -8 -22 -13 0 -5 64 -9 150 -9 86 0 150 4 150
9 0 5 -10 11 -22 13 -17 2 -25 14 -34 50 l-12 47 107 3 106 3 0 235 0 235
-293 3 c-231 2 -294 0 -297 -11z m575 -17 c0 -6 -90 -10 -250 -10 -160 0 -250
-4 -250 -10 0 -6 90 -10 250 -10 l250 0 0 -170 0 -170 -280 0 -280 0 0 190 0
190 280 0 c180 0 280 -4 280 -10z m0 -410 c0 -20 -7 -20 -280 -20 -273 0 -280
0 -280 20 0 20 7 20 280 20 273 0 280 0 280 -20z m-204 -92 l12 -48 -88 0 -88
0 9 38 c6 20 12 43 14 50 3 9 23 12 67 10 l62 -3 12 -47z"/>
<path d="M60 570 c0 -5 5 -10 10 -10 6 0 10 5 10 10 0 6 -4 10 -10 10 -5 0
-10 -4 -10 -10z"/>
<path d="M150 390 c0 -93 4 -150 10 -150 6 0 10 57 10 150 0 93 -4 150 -10
150 -6 0 -10 -57 -10 -150z"/>
<path d="M60 520 c0 -5 11 -10 25 -10 14 0 25 5 25 10 0 6 -11 10 -25 10 -14
0 -25 -4 -25 -10z"/>
<path d="M200 515 c-10 -12 -10 -18 0 -30 19 -23 27 -18 27 15 0 33 -8 38 -27
15z"/>
<path d="M313 500 c0 -33 8 -38 27 -15 10 12 10 18 0 30 -19 23 -27 18 -27
-15z"/>
<path d="M261 498 c-5 -13 -7 -25 -5 -27 6 -7 22 9 27 29 7 27 -12 25 -22 -2z"/>
<path d="M370 500 c0 -6 42 -10 105 -10 63 0 105 4 105 10 0 6 -42 10 -105 10
-63 0 -105 -4 -105 -10z"/>
<path d="M60 470 c0 -5 11 -10 25 -10 14 0 25 5 25 10 0 6 -11 10 -25 10 -14
0 -25 -4 -25 -10z"/>
<path d="M360 460 c0 -6 35 -10 85 -10 50 0 85 4 85 10 0 6 -35 10 -85 10 -50
0 -85 -4 -85 -10z"/>
<path d="M60 420 c0 -5 11 -10 25 -10 14 0 25 5 25 10 0 6 -11 10 -25 10 -14
0 -25 -4 -25 -10z"/>
<path d="M190 420 c0 -6 48 -10 125 -10 77 0 125 4 125 10 0 6 -48 10 -125 10
-77 0 -125 -4 -125 -10z"/>
<path d="M210 380 c0 -6 63 -10 170 -10 107 0 170 4 170 10 0 6 -63 10 -170
10 -107 0 -170 -4 -170 -10z"/>
<path d="M80 370 c0 -5 11 -10 25 -10 14 0 25 5 25 10 0 6 -11 10 -25 10 -14
0 -25 -4 -25 -10z"/>
<path d="M190 340 c0 -6 30 -10 70 -10 40 0 70 4 70 10 0 6 -30 10 -70 10 -40
0 -70 -4 -70 -10z"/>
<path d="M80 320 c0 -5 11 -10 25 -10 14 0 25 5 25 10 0 6 -11 10 -25 10 -14
0 -25 -4 -25 -10z"/>
<path d="M230 300 c0 -5 25 -10 55 -10 30 0 55 5 55 10 0 6 -25 10 -55 10 -30
0 -55 -4 -55 -10z"/>
<path d="M370 295 c-10 -12 -10 -18 0 -30 19 -23 27 -18 27 15 0 33 -8 38 -27
15z"/>
<path d="M483 280 c0 -33 8 -38 27 -15 10 12 10 18 0 30 -19 23 -27 18 -27
-15z"/>
<path d="M431 278 c-5 -13 -7 -25 -5 -27 6 -7 22 9 27 29 7 27 -12 25 -22 -2z"/>
<path d="M80 270 c0 -5 11 -10 25 -10 14 0 25 5 25 10 0 6 -11 10 -25 10 -14
0 -25 -4 -25 -10z"/>
<path d="M210 260 c0 -5 25 -10 55 -10 30 0 55 5 55 10 0 6 -25 10 -55 10 -30
0 -55 -4 -55 -10z"/>
</g>
</svg>
